<svg xmlns="http://www.w3.org/2000/svg" xmlns:xlink="http://www.w3.org/1999/xlink" version="1.1" x="0px" y="0px" viewBox="0 0 1024 1280" enable-background="new 0 0 1024 1024" xml:space="preserve"><g><g><path d="M829.8,379.1c0-175.5-142.3-317.8-317.8-317.8S194.1,203.6,194.1,379.1c0,65,19.5,124.9,53.1,175.9h-0.7    l265.2,407.7L776.8,555h-0.1C810.2,504,829.8,444.2,829.8,379.1z M511.9,475.3c-73.7,0-133.4-59.7-133.4-133.4    s59.7-133.4,133.4-133.4c73.7,0,133.4,59.7,133.4,133.4S585.5,475.3,511.9,475.3z"/><g><path d="M849.8,379.1c-0.2-80.7-29.4-158.8-81.6-220.1C717.9,100,646.2,59,569.8,46.3     C489.4,33,405.9,47.9,336.2,90.6C269.3,131.5,218.3,195.1,192.5,269c-30.3,86.9-22.3,184.4,19.8,265.9     c5.3,10.4,11.3,20.4,17.6,30.2c5.8-10,11.5-20.1,17.3-30.1c-0.2,0-0.5,0-0.7,0c-14.6,0-25.7,17.2-17.3,30.1     c8.8,13.6,17.7,27.2,26.5,40.8c21.1,32.4,42.1,64.7,63.2,97.1c25.5,39.3,51.1,78.5,76.6,117.8c22.1,33.9,44.2,67.9,66.2,101.8     c10.7,16.5,21.2,33.2,32.2,49.5c0.2,0.2,0.3,0.5,0.5,0.7c8.4,12.9,26.2,12.9,34.5,0c8.8-13.6,17.7-27.2,26.5-40.8     c21.1-32.4,42.1-64.7,63.2-97.1c25.5-39.3,51.1-78.5,76.6-117.8c22.1-33.9,44.2-67.9,66.2-101.8c10.7-16.5,22-32.7,32.2-49.5     c0.1-0.2,0.3-0.5,0.5-0.7c8.4-12.9-2.7-30.1-17.3-30.1c0,0,0,0-0.1,0c5.8,10,11.5,20.1,17.3,30.1     C830,509.9,849.6,445.1,849.8,379.1c0-10.5-9.2-20.5-20-20c-10.9,0.5-20,8.8-20,20c0,8.2-0.3,16.4-0.9,24.6     c-0.3,3.7-0.6,7.5-1.1,11.2c-0.1,1-0.9,7.2-0.2,2.4c-0.2,1.7-0.5,3.4-0.7,5.1c-2.3,15.1-5.8,30-10.3,44.6     c-2.1,6.9-4.5,13.8-7.1,20.6c-0.8,2.1-1.6,4.1-2.5,6.2c-1.6,4,1.3-2.9-0.6,1.4c-1.6,3.6-3.2,7.1-4.8,10.6     c-6.5,13.5-13.9,26.6-22.1,39.1c-8.4,12.9,2.7,30.1,17.3,30.1c0,0,0,0,0.1,0c-5.8-10-11.5-20.1-17.3-30.1     c-8.8,13.6-17.7,27.2-26.5,40.8c-21.1,32.4-42.1,64.7-63.2,97.1c-25.5,39.3-51.1,78.5-76.6,117.8     c-22.1,33.9-44.2,67.9-66.2,101.8c-10.7,16.4-22.1,32.6-32.2,49.5c-0.1,0.2-0.3,0.5-0.5,0.7c11.5,0,23,0,34.5,0     c-8.8-13.6-17.7-27.2-26.5-40.8c-21.1-32.4-42.1-64.7-63.2-97.1c-25.5-39.3-51.1-78.5-76.6-117.8     c-22.1-33.9-44.2-67.9-66.2-101.8c-10.7-16.4-20.8-33.5-32.2-49.5c-0.2-0.2-0.3-0.5-0.5-0.7c-5.8,10-11.5,20.1-17.3,30.1     c0.2,0,0.5,0,0.7,0c14.6,0,25.7-17.2,17.3-30.1c-6.4-9.8-12.3-19.8-17.6-30.2c-2.5-4.9-5-9.9-7.3-15c-0.5-1-0.9-2-1.4-3     c-0.3-0.6-2.4-5.8-0.6-1.4c-1.1-2.6-2.1-5.2-3.1-7.8c-8.4-21.8-14.4-44.6-17.8-67.7c-0.2-1.1-0.6-5-0.1-0.6     c-0.1-1.1-0.3-2.3-0.4-3.4c-0.3-2.9-0.6-5.7-0.9-8.6c-0.6-6.4-0.9-12.8-1.1-19.2c-0.3-10.2-0.1-20.4,0.6-30.5     c0.3-4.4,0.7-8.7,1.2-13.1c0.2-2.1,0.1-4.8,0.8-6.8c-1.6,4.9-0.2,1.5,0-0.1c0.2-1.4,0.4-2.7,0.6-4.1c1.5-9.4,3.5-18.7,5.8-27.9     c2.2-8.7,4.8-17.2,7.8-25.7c1.5-4.2,3-8.4,4.7-12.5c0.4-1,0.8-2.1,1.2-3.1c0.7-1.7,0.5-3.8-0.2,0.5c0.4-2.4,2.2-5.1,3.2-7.3     c7.5-16.4,16.4-32.1,26.5-47c2.5-3.6,5-7.2,7.6-10.7c0.5-0.7,1.1-1.4,1.6-2.1c2.6-3.6-2.2,2.7-0.3,0.4c1.5-1.9,3-3.8,4.5-5.6     c5.8-7.1,11.9-13.9,18.3-20.5c6.1-6.3,12.4-12.3,19-18c3.3-2.9,6.6-5.7,10-8.4c1-0.8,2.1-1.6,3.1-2.4c1.5-1.2,0.9-1.8-0.9,0.7     c1.3-1.8,4.5-3.4,6.3-4.7c14.6-10.6,30-19.9,46.2-27.8c4-2,8-3.8,12-5.6c0.8-0.4,1.6-0.7,2.4-1.1c4.3-1.9-4.2,1.7,0.1,0     c2.3-0.9,4.5-1.8,6.8-2.7c8.5-3.3,17.2-6.2,26-8.7c9.1-2.6,18.3-4.8,27.6-6.6c4.2-0.8,8.5-1.6,12.8-2.2c1-0.1,2.4-0.6,3.4-0.5     c-3.2-0.5-3.2,0.4-1.2,0.2c2.7-0.3,5.5-0.7,8.2-0.9c19-1.9,38.2-2.1,57.2-0.6c4.6,0.4,9.2,0.8,13.8,1.4c0.4,0.1,4.9,0.8,1.4,0.2     c-3.5-0.6,1,0.2,1.4,0.2c2.7,0.4,5.4,0.8,8.1,1.3c8.9,1.6,17.7,3.5,26.5,5.8c9.1,2.4,18,5.2,26.9,8.4c4.2,1.5,8.3,3.2,12.4,4.8     c1.5,0.6,2.6,0.2-1.1-0.5c1.2,0.2,2.6,1.1,3.7,1.6c2,0.9,4,1.8,6,2.7c16.5,7.7,32.4,16.9,47.3,27.3c3.4,2.4,6.7,4.9,10.1,7.3     c3.7,2.8-3.5-2.8,0.1,0.1c0.7,0.5,1.4,1.1,2.1,1.6c2,1.6,4.1,3.3,6.1,5c6.9,5.7,13.5,11.8,19.8,18.1c6.3,6.3,12.4,12.9,18.2,19.7     c2.8,3.3,5.6,6.7,8.3,10.1c2.2,2.8-0.4-0.7-0.7-0.9c0.9,0.6,1.7,2.3,2.4,3.1c1.4,1.9,2.8,3.9,4.2,5.8     c10.5,14.9,19.8,30.6,27.7,47.1c1.8,3.8,3.4,7.7,5.2,11.5c1.2,2.7-1.9-4.7-0.2-0.5c0.4,1,0.8,2.1,1.2,3.1     c0.9,2.3,1.8,4.5,2.6,6.8c3.3,8.8,6.2,17.7,8.6,26.8c2.4,8.7,4.4,17.5,6,26.4c0.8,4.5,1.3,9,2.2,13.5c-1.2-6.1,0.2,1.6,0.3,2.9     c0.3,2.7,0.6,5.5,0.8,8.3c0.8,9.3,1.2,18.6,1.2,27.9c0,10.5,9.2,20.5,20,20C840.6,398.6,849.8,390.3,849.8,379.1z"/><path d="M511.9,455.3c-3.3,0-6.5-0.1-9.8-0.4c-1.6-0.1-3.2-0.3-4.8-0.4c-0.8-0.1-3.8-0.5-0.7-0.1     c3.4,0.5-1.1-0.2-1.4-0.2c-6.4-1.1-12.8-2.6-19-4.6c-3-1-5.8-2.2-8.8-3.2c-2.5-0.8,3.5,1.7,1.1,0.5c-0.6-0.3-1.2-0.5-1.8-0.8     c-1.6-0.7-3.2-1.5-4.8-2.3c-5.9-3-11.5-6.3-16.9-10.1c-0.8-0.6-4.7-2.9-2.2-1.5c2.6,1.4-1.3-1.1-2.1-1.7c-2.7-2.2-5.3-4.6-7.8-7     c-2.2-2.1-4.3-4.3-6.3-6.6c-1-1.1-2-2.3-3-3.5c-0.4-0.5-0.8-1-1.2-1.5c-0.4-0.5-2.2-3.6-0.9-1.1c1.3,2.5-0.9-1.3-1.5-2.2     c-0.9-1.2-1.7-2.5-2.6-3.8c-1.8-2.7-3.5-5.6-5.1-8.4c-1.5-2.7-2.9-5.4-4.2-8.2c-0.4-0.8-0.7-1.6-1.1-2.4     c-1.2-2.5-0.4,0.7,0.5,1.1c-0.8-0.5-1.6-4.1-1.9-5c-2.2-6.1-4-12.4-5.3-18.7c-0.3-1.6-0.6-3.1-0.9-4.7c0,0-0.6-2.5-0.4-2.7     c-0.1,0.1,0.6,5.1,0.2,1.2c-0.3-3.4-0.6-6.9-0.8-10.4c-0.2-6.7,0.1-13.5,0.8-20.2c0.4-3.6-0.6,4,0.1-0.8c0.3-1.6,0.5-3.1,0.8-4.7     c0.7-3.5,1.5-7,2.5-10.5c0.9-3,1.8-6,2.9-8.9c0.5-1.5,1.2-2.9,1.7-4.3c0.7-2.2-0.7,1.9-0.7,1.7c-0.1-0.5,1.1-2.4,1.3-3     c2.8-6,6-11.7,9.6-17.2c0.8-1.3,1.7-2.5,2.6-3.8c0.5-0.7,3-4.9,1.5-2.2c-1.3,2.5,1-1.2,1.7-2.1c1.1-1.3,2.2-2.7,3.4-4     c4.4-4.9,9.1-9.4,14.1-13.6c0.7-0.6,4.7-3.1,2.1-1.7c-2.6,1.4,1.5-1.1,2.2-1.5c2.7-1.9,5.4-3.7,8.2-5.4c2.6-1.6,5.3-3.1,8-4.5     c1.4-0.7,2.8-1.4,4.1-2c0.8-0.4,1.6-0.7,2.4-1.1c2.8-1.3-0.9,0-1.1,0.5c0.8-1.5,7.7-2.9,9.4-3.4c3.2-1,6.4-1.9,9.7-2.7     c3.1-0.7,6.2-1.4,9.3-1.9c0.9-0.1,1.9-0.2,2.7-0.4c0,0-4.2,0.5-1.9,0.3c2.1-0.2,4.1-0.4,6.2-0.6c6.7-0.5,13.5-0.5,20.2,0.1     c1.6,0.1,3.2,0.3,4.8,0.5c3.7,0.3-3.9-0.6,0.8,0.1c3.3,0.5,6.7,1.2,10,2c3,0.7,6.1,1.6,9,2.5c1.8,0.6,9.1,2,10,3.6     c0,0.1-3.8-1.7-1.7-0.7c0.8,0.4,1.6,0.7,2.4,1.1c1.4,0.6,2.8,1.3,4.2,2c2.9,1.5,5.8,3.1,8.6,4.8c2.8,1.7,5.6,3.5,8.2,5.4     c0.5,0.4,3.1,1.7,3.2,2.3c-0.1-0.7-3.1-2.5-0.9-0.7c0.8,0.7,1.7,1.4,2.5,2.1c4.8,4.1,9.4,8.4,13.6,13.1c1.6,1.7,5.2,4.8,5.9,7     c-0.6-2.2-2-2.7-0.8-0.9c0.5,0.7,1,1.4,1.5,2.1c1,1.4,2,2.9,2.9,4.3c3.5,5.3,6.5,10.9,9.2,16.7c0.4,0.8,0.7,1.6,1.1,2.4     c1,2-0.8-1.8-0.7-1.7c0.8,0.4,1.3,3.4,1.7,4.3c1.2,3.3,2.3,6.7,3.3,10.2c0.8,3,1.6,6.1,2.2,9.2c0.3,1.6,0.6,3.1,0.9,4.7     c0.1,0.7,0.2,1.4,0.3,2c0.4,2.5-0.4-4.4-0.1-0.6c0.6,7,1,13.9,0.7,20.9c-0.1,3.2-0.4,6.4-0.7,9.7c-0.4,3.7,0.7-4.3-0.1,0.8     c-0.3,1.8-0.6,3.6-1,5.3c-1.3,6.4-3.1,12.6-5.3,18.7c-0.3,0.7-1.2,4.6-1.9,5c-0.1,0,1.7-3.8,0.7-1.7c-0.4,0.8-0.7,1.6-1.1,2.4     c-1.4,3-2.9,5.9-4.5,8.8c-1.5,2.7-3.1,5.3-4.7,7.9c-0.8,1.3-1.7,2.5-2.6,3.8c-0.5,0.7-1,1.4-1.5,2.1c-0.4,0.6-1.7,3-0.4,0.6     c1.4-2.6-1.1,1.3-1.7,2.1c-1.1,1.3-2.2,2.7-3.4,4c-2.2,2.4-4.5,4.8-6.8,7c-2.2,2.1-4.5,4.1-6.8,6.1c-1,0.8-2.4,2.6-3.6,2.9     c0.2-0.1,3.9-2.8,0.9-0.8c-0.7,0.5-1.4,1-2.1,1.5c-5.4,3.8-11,7.2-16.9,10.1c-1.4,0.7-2.8,1.4-4.2,2c-0.6,0.3-1.2,0.5-1.8,0.8     c-3.4,1.6,1.1-0.3,1.1-0.5c-0.8,1.4-7.8,2.9-9.4,3.4c-6.4,2.1-13,3.7-19.7,4.7c-4.7,0.8,2.9-0.2-0.8,0.1     c-1.6,0.2-3.2,0.3-4.8,0.5C518.8,455.2,515.4,455.3,511.9,455.3c-10.5,0.1-20.5,9.2-20,20c0.5,10.8,8.8,20.1,20,20     c31.2-0.2,62.7-9.6,88-27.9c26-18.8,45.4-44,56.5-74.2c21.6-58.7,2.6-128.9-45.7-168.6c-25.2-20.7-55.1-33-87.7-35.7     c-31.2-2.6-63.7,5.3-90.4,21.6c-25.7,15.6-47.3,39.1-59.7,66.6c-13.7,30.4-17.6,63.4-11.1,96.1C373.7,433.6,425,483.6,485.9,493     c8.6,1.3,17.3,2.3,26,2.3c10.5,0.1,20.5-9.2,20-20C531.4,464.5,523.1,455.4,511.9,455.3z"/></g></g></g><text x="0" y="1039" fill="#000000" font-size="5px" font-weight="bold" font-family="'Helvetica Neue', Helvetica, Arial-Unicode, Arial, Sans-serif">Created by Neha Tyagi</text><text x="0" y="1044" fill="#000000" font-size="5px" font-weight="bold" font-family="'Helvetica Neue', Helvetica, Arial-Unicode, Arial, Sans-serif">from the Noun Project</text></svg>